<?xml version="1.0" standalone="no"?>
<!DOCTYPE svg PUBLIC "-//W3C//DTD SVG 20010904//EN"
 "http://www.w3.org/TR/2001/REC-SVG-20010904/DTD/svg10.dtd">
<svg version="1.0" xmlns="http://www.w3.org/2000/svg"
 width="1042.000000pt" height="332.000000pt" viewBox="0 0 1042.000000 332.000000"
 preserveAspectRatio="xMidYMid meet">

<g transform="translate(0.000000,332.000000) scale(0.100000,-0.100000)"
fill="#000000" stroke="none">
<path d="M7820 2894 c-45 -20 -68 -41 -91 -86 -18 -36 -19 -78 -19 -1150 l0
-1114 23 -44 c12 -24 35 -53 50 -64 28 -21 34 -21 1150 -21 l1122 0 41 22 c46
25 91 73 99 106 3 12 4 526 3 1142 l-3 1120 -24 34 c-13 18 -42 42 -65 52 -39
18 -90 19 -1146 18 -962 0 -1110 -2 -1140 -15z m508 -310 c83 -34 142 -121
142 -209 0 -169 -180 -276 -330 -197 -77 40 -113 95 -118 180 -4 75 9 118 52
168 56 68 169 94 254 58z m1182 -615 c189 -30 294 -140 332 -346 8 -46 12
-193 13 -463 l0 -395 -180 0 -180 0 -6 350 c-3 206 -10 363 -16 381 -30 87
-76 136 -145 155 -90 24 -210 -22 -254 -97 -45 -77 -47 -96 -53 -449 l-6 -340
-180 0 -180 0 -3 598 -2 597 175 0 175 0 0 -78 0 -78 48 46 c108 104 281 149
462 119z m-1082 -606 l-3 -598 -180 0 -180 0 -3 598 -2 597 185 0 185 0 -2
-597z"/>
<path d="M1629 2577 c-92 -35 -139 -102 -139 -200 0 -71 12 -103 58 -150 113
-116 311 -64 353 93 43 163 -118 314 -272 257z"/>
<path d="M210 1660 l0 -890 535 0 535 0 0 175 0 175 -357 2 -358 3 -3 713 -2
712 -175 0 -175 0 0 -890z"/>
<path d="M3540 1660 l0 -890 180 0 180 0 2 294 3 293 210 -284 c116 -156 215
-289 221 -294 7 -5 97 -8 216 -7 l204 3 -248 319 c-136 176 -248 322 -248 325
0 3 84 101 186 216 102 116 208 236 236 268 l50 57 -209 0 -208 0 -205 -235
-205 -236 -3 531 -2 530 -180 0 -180 0 0 -890z"/>
<path d="M7000 2185 c0 -201 -3 -365 -7 -365 -5 0 -24 17 -43 36 -78 79 -217
120 -378 112 -250 -14 -440 -170 -508 -419 -25 -89 -25 -289 0 -379 54 -197
199 -347 381 -395 34 -9 102 -15 161 -15 162 0 286 40 379 122 l35 30 0 -71 0
-71 165 0 165 0 0 890 0 890 -175 0 -175 0 0 -365z m-199 -495 c109 -33 175
-105 205 -223 44 -169 -33 -357 -172 -418 -103 -46 -245 -33 -331 31 -158 116
-174 398 -32 540 83 83 205 109 330 70z"/>
<path d="M2701 1954 c-80 -21 -167 -72 -212 -122 l-39 -45 0 87 0 86 -165 0
-165 0 0 -595 0 -595 175 0 175 0 0 319 c0 295 2 324 21 386 25 82 90 153 155
173 98 29 199 5 243 -57 53 -74 55 -92 59 -468 l3 -353 175 0 175 0 -4 423
c-4 448 -6 466 -56 570 -48 99 -144 172 -259 196 -73 15 -216 13 -281 -5z"/>
<path d="M5215 1963 c-174 -23 -343 -136 -413 -275 -49 -98 -64 -167 -63 -303
0 -266 104 -461 299 -559 99 -50 175 -66 315 -66 147 0 248 20 352 69 72 34
188 122 175 133 -3 3 -53 43 -111 91 l-106 86 -34 -35 c-87 -90 -258 -136
-369 -99 -94 31 -190 146 -190 228 l0 27 426 0 427 0 -6 123 c-10 194 -55 320
-151 424 -106 114 -236 164 -420 162 -56 -1 -114 -4 -131 -6z m233 -252 c69
-35 132 -134 132 -208 l0 -23 -255 0 -255 0 0 23 c0 37 45 120 88 161 77 74
198 94 290 47z"/>
<path d="M1520 1365 l0 -595 175 0 175 0 0 595 0 595 -175 0 -175 0 0 -595z"/>
</g>
</svg>
